<svg width="159" height="42" viewBox="0 0 159 42" fill="none" xmlns="http://www.w3.org/2000/svg">
<path d="M35.36 31V16.88H37.6L43.16 25.54H42.02L47.56 16.88H49.82V31H46.68V22.18L47.24 22.32L43.62 27.96H41.54L37.94 22.32L38.48 22.18V31H35.36ZM57.048 31.22C55.9946 31.22 55.0546 31.0067 54.228 30.58C53.4146 30.14 52.7746 29.5333 52.308 28.76C51.8413 27.9867 51.608 27.1133 51.608 26.14C51.608 25.1667 51.8346 24.3 52.288 23.54C52.7546 22.7667 53.3813 22.16 54.168 21.72C54.9546 21.28 55.8413 21.06 56.828 21.06C57.788 21.06 58.6346 21.2667 59.368 21.68C60.1013 22.0933 60.6746 22.6667 61.088 23.4C61.5146 24.1333 61.728 24.9733 61.728 25.92C61.728 26.0933 61.7146 26.28 61.688 26.48C61.6746 26.6667 61.6413 26.8867 61.588 27.14L53.208 27.16V25.06L60.288 25.04L58.968 25.92C58.9546 25.36 58.868 24.9 58.708 24.54C58.548 24.1667 58.308 23.8867 57.988 23.7C57.6813 23.5 57.3013 23.4 56.848 23.4C56.368 23.4 55.948 23.5133 55.588 23.74C55.2413 23.9533 54.968 24.26 54.768 24.66C54.5813 25.06 54.488 25.5467 54.488 26.12C54.488 26.6933 54.588 27.1867 54.788 27.6C55.0013 28 55.2946 28.3133 55.668 28.54C56.0546 28.7533 56.508 28.86 57.028 28.86C57.508 28.86 57.9413 28.78 58.328 28.62C58.7146 28.4467 59.0546 28.1933 59.348 27.86L61.028 29.54C60.548 30.1 59.968 30.52 59.288 30.8C58.608 31.08 57.8613 31.22 57.048 31.22ZM67.345 31.2C66.425 31.2 65.605 30.98 64.885 30.54C64.1783 30.1 63.6183 29.5 63.205 28.74C62.805 27.98 62.605 27.1133 62.605 26.14C62.605 25.1667 62.805 24.3 63.205 23.54C63.6183 22.78 64.1783 22.18 64.885 21.74C65.605 21.3 66.425 21.08 67.345 21.08C68.0117 21.08 68.6117 21.2067 69.145 21.46C69.6917 21.7133 70.1383 22.0667 70.485 22.52C70.845 22.96 71.045 23.4667 71.085 24.04V28.14C71.045 28.7133 70.8517 29.2333 70.505 29.7C70.1583 30.1533 69.7117 30.52 69.165 30.8C68.6183 31.0667 68.0117 31.2 67.345 31.2ZM67.885 28.44C68.325 28.44 68.705 28.3467 69.025 28.16C69.345 27.96 69.5983 27.6867 69.785 27.34C69.9717 26.9933 70.065 26.5933 70.065 26.14C70.065 25.6867 69.9717 25.2933 69.785 24.96C69.6117 24.6133 69.3583 24.34 69.025 24.14C68.705 23.94 68.3317 23.84 67.905 23.84C67.4783 23.84 67.0983 23.94 66.765 24.14C66.445 24.34 66.185 24.6133 65.985 24.96C65.7983 25.3067 65.705 25.7 65.705 26.14C65.705 26.58 65.7983 26.9733 65.985 27.32C66.1717 27.6667 66.4317 27.94 66.765 28.14C67.0983 28.34 67.4717 28.44 67.885 28.44ZM72.945 31H69.945V28.38L70.405 26.02L69.885 23.66V16.48H72.945V31ZM75.0995 31V21.28H78.1595V31H75.0995ZM76.6395 19.94C76.1595 19.94 75.7595 19.78 75.4395 19.46C75.1329 19.1267 74.9795 18.7267 74.9795 18.26C74.9795 17.78 75.1329 17.38 75.4395 17.06C75.7595 16.74 76.1595 16.58 76.6395 16.58C77.1195 16.58 77.5129 16.74 77.8195 17.06C78.1262 17.38 78.2795 17.78 78.2795 18.26C78.2795 18.7267 78.1262 19.1267 77.8195 19.46C77.5129 19.78 77.1195 19.94 76.6395 19.94ZM80.3144 27.24V24.56H87.3944V27.24H80.3144ZM96.8647 31.22C95.8114 31.22 94.8314 31.04 93.9247 30.68C93.0314 30.3067 92.2447 29.7867 91.5647 29.12C90.898 28.4533 90.378 27.68 90.0047 26.8C89.6314 25.9067 89.4447 24.9467 89.4447 23.92C89.4447 22.8933 89.6314 21.94 90.0047 21.06C90.378 20.1667 90.898 19.3933 91.5647 18.74C92.2314 18.0867 93.0114 17.58 93.9047 17.22C94.8114 16.8467 95.7914 16.66 96.8447 16.66C97.9647 16.66 98.958 16.84 99.8247 17.2C100.705 17.56 101.471 18.0533 102.125 18.68L100.025 20.8C99.6514 20.4 99.198 20.0867 98.6647 19.86C98.1447 19.6333 97.538 19.52 96.8447 19.52C96.2314 19.52 95.6647 19.6267 95.1447 19.84C94.638 20.04 94.198 20.3333 93.8247 20.72C93.4647 21.1067 93.178 21.5733 92.9647 22.12C92.7647 22.6667 92.6647 23.2667 92.6647 23.92C92.6647 24.5867 92.7647 25.1933 92.9647 25.74C93.178 26.2867 93.4647 26.7533 93.8247 27.14C94.198 27.5267 94.638 27.8267 95.1447 28.04C95.6647 28.2533 96.2314 28.36 96.8447 28.36C97.5647 28.36 98.1914 28.2467 98.7247 28.02C99.258 27.7933 99.718 27.48 100.105 27.08L102.225 29.2C101.545 29.8267 100.765 30.32 99.8847 30.68C99.018 31.04 98.0114 31.22 96.8647 31.22ZM108.119 31.22C107.119 31.22 106.213 31 105.399 30.56C104.599 30.1067 103.966 29.4933 103.499 28.72C103.033 27.9467 102.799 27.08 102.799 26.12C102.799 25.16 103.033 24.3 103.499 23.54C103.966 22.78 104.599 22.18 105.399 21.74C106.199 21.2867 107.106 21.06 108.119 21.06C109.133 21.06 110.039 21.28 110.839 21.72C111.639 22.16 112.273 22.7667 112.739 23.54C113.206 24.3 113.439 25.16 113.439 26.12C113.439 27.08 113.206 27.9467 112.739 28.72C112.273 29.4933 111.639 30.1067 110.839 30.56C110.039 31 109.133 31.22 108.119 31.22ZM108.119 28.44C108.559 28.44 108.946 28.3467 109.279 28.16C109.613 27.96 109.866 27.6867 110.039 27.34C110.226 26.98 110.319 26.5733 110.319 26.12C110.319 25.6667 110.226 25.2733 110.039 24.94C109.853 24.5933 109.593 24.3267 109.259 24.14C108.939 23.94 108.559 23.84 108.119 23.84C107.693 23.84 107.313 23.94 106.979 24.14C106.646 24.3267 106.386 24.5933 106.199 24.94C106.013 25.2867 105.919 25.6867 105.919 26.14C105.919 26.58 106.013 26.98 106.199 27.34C106.386 27.6867 106.646 27.96 106.979 28.16C107.313 28.3467 107.693 28.44 108.119 28.44ZM121.383 31V25.46C121.383 24.9533 121.223 24.5467 120.903 24.24C120.596 23.92 120.203 23.76 119.723 23.76C119.389 23.76 119.096 23.8333 118.843 23.98C118.589 24.1133 118.389 24.3133 118.243 24.58C118.096 24.8333 118.023 25.1267 118.023 25.46L116.843 24.88C116.843 24.12 117.009 23.4533 117.343 22.88C117.676 22.3067 118.136 21.8667 118.723 21.56C119.323 21.24 119.996 21.08 120.743 21.08C121.463 21.08 122.096 21.2533 122.643 21.6C123.203 21.9333 123.643 22.38 123.963 22.94C124.283 23.5 124.443 24.1133 124.443 24.78V31H121.383ZM114.963 31V21.28H118.023V31H114.963ZM129.948 31.24C129.375 31.24 128.808 31.1667 128.248 31.02C127.701 30.8733 127.188 30.6667 126.708 30.4C126.241 30.12 125.841 29.8 125.508 29.44L127.248 27.68C127.568 28.0267 127.948 28.3 128.388 28.5C128.828 28.6867 129.308 28.78 129.828 28.78C130.188 28.78 130.461 28.7267 130.648 28.62C130.848 28.5133 130.948 28.3667 130.948 28.18C130.948 27.94 130.828 27.76 130.588 27.64C130.361 27.5067 130.068 27.3933 129.708 27.3C129.348 27.1933 128.968 27.08 128.568 26.96C128.168 26.84 127.788 26.6733 127.428 26.46C127.068 26.2467 126.775 25.9533 126.548 25.58C126.321 25.1933 126.208 24.7067 126.208 24.12C126.208 23.4933 126.368 22.9533 126.688 22.5C127.008 22.0333 127.461 21.6667 128.048 21.4C128.635 21.1333 129.321 21 130.108 21C130.935 21 131.695 21.1467 132.388 21.44C133.095 21.72 133.668 22.14 134.108 22.7L132.368 24.46C132.061 24.1 131.715 23.8467 131.328 23.7C130.955 23.5533 130.588 23.48 130.228 23.48C129.881 23.48 129.621 23.5333 129.448 23.64C129.275 23.7333 129.188 23.8733 129.188 24.06C129.188 24.26 129.301 24.42 129.528 24.54C129.755 24.66 130.048 24.7667 130.408 24.86C130.768 24.9533 131.148 25.0667 131.548 25.2C131.948 25.3333 132.328 25.5133 132.688 25.74C133.048 25.9667 133.341 26.2733 133.568 26.66C133.795 27.0333 133.908 27.5267 133.908 28.14C133.908 29.0867 133.548 29.84 132.828 30.4C132.121 30.96 131.161 31.24 129.948 31.24ZM139.888 31.22C138.995 31.22 138.202 31.04 137.508 30.68C136.828 30.3067 136.295 29.8 135.908 29.16C135.522 28.5067 135.328 27.76 135.328 26.92V21.28H138.388V26.88C138.388 27.2133 138.442 27.5 138.548 27.74C138.668 27.98 138.842 28.1667 139.068 28.3C139.295 28.4333 139.568 28.5 139.888 28.5C140.342 28.5 140.702 28.36 140.968 28.08C141.235 27.7867 141.368 27.3867 141.368 26.88V21.28H144.428V26.9C144.428 27.7533 144.235 28.5067 143.848 29.16C143.462 29.8 142.928 30.3067 142.248 30.68C141.568 31.04 140.782 31.22 139.888 31.22ZM146.35 31V16.48H149.41V31H146.35ZM152.944 31V17.26H156.004V31H152.944ZM150.744 23.88V21.28H158.204V23.88H150.744Z" fill="#800080"/>
<path fill-rule="evenodd" clip-rule="evenodd" d="M16.1568 0L0 11.509V41.1667H31.871V11.509L16.1568 0ZM17.7061 15.0501H13.7222V24.7885H3.98386V28.7724H13.7222V38.5107H17.7061V28.7724H27.4445V24.7885H17.7061V15.7495L19.4767 14.4631L21.298 15.7863L20.6023 13.6453L22.4236 12.322H20.1724L19.4767 10.181L18.781 12.322H16.5298L18.3511 13.6453L17.7061 15.6302V15.0501Z" fill="#800080"/>
</svg>
